<mxfile host="app.diagrams.net" modified="2024-03-17T18:28:15.557Z" agent="Mozilla/5.0 (Windows NT 10.0; Win64; x64) AppleWebKit/537.36 (KHTML, like Gecko) Chrome/122.0.0.0 Safari/537.36" etag="ei67I0RAscNLnZtpfg8e" version="24.0.7" type="device">
  <diagram name="Page-1" id="jgpXV2BUDuXl1opN4LU9">
    <mxGraphModel dx="1456" dy="671" grid="1" gridSize="10" guides="1" tooltips="1" connect="1" arrows="1" fold="1" page="1" pageScale="1" pageWidth="850" pageHeight="1100" math="0" shadow="0">
      <root>
        <mxCell id="0" />
        <mxCell id="1" parent="0" />
        <mxCell id="KNPcgNjq1FIYK8oZRvmr-1" value="SchedulerSystem" style="shape=umlLifeline;perimeter=lifelinePerimeter;whiteSpace=wrap;container=1;dropTarget=0;collapsible=0;recursiveResize=0;outlineConnect=0;portConstraint=eastwest;newEdgeStyle={&quot;edgeStyle&quot;:&quot;elbowEdgeStyle&quot;,&quot;elbow&quot;:&quot;vertical&quot;,&quot;curved&quot;:0,&quot;rounded&quot;:0};size=65;" vertex="1" parent="1">
          <mxGeometry x="48" y="20" width="150" height="959" as="geometry" />
        </mxCell>
        <mxCell id="KNPcgNjq1FIYK8oZRvmr-2" value="Instruction" style="shape=umlLifeline;perimeter=lifelinePerimeter;whiteSpace=wrap;container=1;dropTarget=0;collapsible=0;recursiveResize=0;outlineConnect=0;portConstraint=eastwest;newEdgeStyle={&quot;edgeStyle&quot;:&quot;elbowEdgeStyle&quot;,&quot;elbow&quot;:&quot;vertical&quot;,&quot;curved&quot;:0,&quot;rounded&quot;:0};size=65;" vertex="1" parent="1">
          <mxGeometry x="248" y="20" width="150" height="959" as="geometry" />
        </mxCell>
        <mxCell id="KNPcgNjq1FIYK8oZRvmr-3" value="Event" style="shape=umlLifeline;perimeter=lifelinePerimeter;whiteSpace=wrap;container=1;dropTarget=0;collapsible=0;recursiveResize=0;outlineConnect=0;portConstraint=eastwest;newEdgeStyle={&quot;edgeStyle&quot;:&quot;elbowEdgeStyle&quot;,&quot;elbow&quot;:&quot;vertical&quot;,&quot;curved&quot;:0,&quot;rounded&quot;:0};size=65;" vertex="1" parent="1">
          <mxGeometry x="448" y="20" width="150" height="959" as="geometry" />
        </mxCell>
        <mxCell id="KNPcgNjq1FIYK8oZRvmr-4" value="Updatable" style="shape=umlLifeline;perimeter=lifelinePerimeter;whiteSpace=wrap;container=1;dropTarget=0;collapsible=0;recursiveResize=0;outlineConnect=0;portConstraint=eastwest;newEdgeStyle={&quot;edgeStyle&quot;:&quot;elbowEdgeStyle&quot;,&quot;elbow&quot;:&quot;vertical&quot;,&quot;curved&quot;:0,&quot;rounded&quot;:0};size=65;" vertex="1" parent="1">
          <mxGeometry x="648" y="20" width="150" height="959" as="geometry" />
        </mxCell>
        <mxCell id="KNPcgNjq1FIYK8oZRvmr-5" value="SchedulerState" style="shape=umlLifeline;perimeter=lifelinePerimeter;whiteSpace=wrap;container=1;dropTarget=0;collapsible=0;recursiveResize=0;outlineConnect=0;portConstraint=eastwest;newEdgeStyle={&quot;edgeStyle&quot;:&quot;elbowEdgeStyle&quot;,&quot;elbow&quot;:&quot;vertical&quot;,&quot;curved&quot;:0,&quot;rounded&quot;:0};size=65;" vertex="1" parent="1">
          <mxGeometry x="848" y="20" width="150" height="959" as="geometry" />
        </mxCell>
        <mxCell id="KNPcgNjq1FIYK8oZRvmr-6" value="alt" style="shape=umlFrame;dashed=1;pointerEvents=0;dropTarget=0;strokeColor=#B3B3B3;height=20;width=30" vertex="1" parent="1">
          <mxGeometry x="32" y="387" width="902" height="297" as="geometry" />
        </mxCell>
        <mxCell id="KNPcgNjq1FIYK8oZRvmr-7" value="[Instruction queue is not empty]" style="text;strokeColor=none;fillColor=none;align=center;verticalAlign=middle;whiteSpace=wrap;" vertex="1" parent="KNPcgNjq1FIYK8oZRvmr-6">
          <mxGeometry x="30" width="872" height="20" as="geometry" />
        </mxCell>
        <mxCell id="KNPcgNjq1FIYK8oZRvmr-8" value="[Instruction queue is empty]" style="shape=line;dashed=1;whiteSpace=wrap;verticalAlign=top;labelPosition=center;verticalLabelPosition=middle;align=center;strokeColor=#B3B3B3;" vertex="1" parent="KNPcgNjq1FIYK8oZRvmr-6">
          <mxGeometry y="207" width="902" height="4" as="geometry" />
        </mxCell>
        <mxCell id="KNPcgNjq1FIYK8oZRvmr-9" value="loop" style="shape=umlFrame;dashed=1;pointerEvents=0;dropTarget=0;strokeColor=#B3B3B3;height=20;width=40" vertex="1" parent="1">
          <mxGeometry x="20" y="259" width="924" height="435" as="geometry" />
        </mxCell>
        <mxCell id="KNPcgNjq1FIYK8oZRvmr-10" value="[Instruction handling]" style="text;strokeColor=none;fillColor=none;align=center;verticalAlign=middle;whiteSpace=wrap;" vertex="1" parent="KNPcgNjq1FIYK8oZRvmr-9">
          <mxGeometry x="40" width="884" height="20" as="geometry" />
        </mxCell>
        <mxCell id="KNPcgNjq1FIYK8oZRvmr-11" value="loop" style="shape=umlFrame;dashed=1;pointerEvents=0;dropTarget=0;strokeColor=#B3B3B3;height=20;width=40" vertex="1" parent="1">
          <mxGeometry x="38" y="704" width="695" height="180" as="geometry" />
        </mxCell>
        <mxCell id="KNPcgNjq1FIYK8oZRvmr-12" value="[Event handling]" style="text;strokeColor=none;fillColor=none;align=center;verticalAlign=middle;whiteSpace=wrap;" vertex="1" parent="KNPcgNjq1FIYK8oZRvmr-11">
          <mxGeometry x="40" width="655" height="20" as="geometry" />
        </mxCell>
        <mxCell id="KNPcgNjq1FIYK8oZRvmr-13" value="new()" style="curved=1;rounded=0;" edge="1" parent="1" source="KNPcgNjq1FIYK8oZRvmr-1" target="KNPcgNjq1FIYK8oZRvmr-1">
          <mxGeometry relative="1" as="geometry">
            <Array as="points">
              <mxPoint x="173" y="127" />
              <mxPoint x="173" y="157" />
            </Array>
          </mxGeometry>
        </mxCell>
        <mxCell id="KNPcgNjq1FIYK8oZRvmr-14" value="start()" style="curved=1;rounded=0;" edge="1" parent="1" source="KNPcgNjq1FIYK8oZRvmr-1" target="KNPcgNjq1FIYK8oZRvmr-1">
          <mxGeometry relative="1" as="geometry">
            <Array as="points">
              <mxPoint x="173" y="209" />
              <mxPoint x="173" y="239" />
            </Array>
          </mxGeometry>
        </mxCell>
        <mxCell id="KNPcgNjq1FIYK8oZRvmr-15" value="addInstruction(instruction)" style="curved=1;rounded=0;" edge="1" parent="1" source="KNPcgNjq1FIYK8oZRvmr-1" target="KNPcgNjq1FIYK8oZRvmr-1">
          <mxGeometry relative="1" as="geometry">
            <Array as="points">
              <mxPoint x="173" y="337" />
              <mxPoint x="173" y="367" />
            </Array>
          </mxGeometry>
        </mxCell>
        <mxCell id="KNPcgNjq1FIYK8oZRvmr-16" value="getInstruction()" style="verticalAlign=bottom;endArrow=block;edgeStyle=elbowEdgeStyle;elbow=vertical;curved=0;rounded=0;" edge="1" parent="1" source="KNPcgNjq1FIYK8oZRvmr-1" target="KNPcgNjq1FIYK8oZRvmr-2">
          <mxGeometry relative="1" as="geometry">
            <Array as="points">
              <mxPoint x="233" y="465" />
            </Array>
          </mxGeometry>
        </mxCell>
        <mxCell id="KNPcgNjq1FIYK8oZRvmr-17" value="instruction" style="verticalAlign=bottom;endArrow=block;edgeStyle=elbowEdgeStyle;elbow=vertical;curved=0;rounded=0;dashed=1;dashPattern=2 3;" edge="1" parent="1" source="KNPcgNjq1FIYK8oZRvmr-2" target="KNPcgNjq1FIYK8oZRvmr-1">
          <mxGeometry relative="1" as="geometry">
            <Array as="points">
              <mxPoint x="233" y="517" />
            </Array>
          </mxGeometry>
        </mxCell>
        <mxCell id="KNPcgNjq1FIYK8oZRvmr-18" value="setState(newState)" style="verticalAlign=bottom;endArrow=block;edgeStyle=elbowEdgeStyle;elbow=vertical;curved=0;rounded=0;" edge="1" parent="1" source="KNPcgNjq1FIYK8oZRvmr-1" target="KNPcgNjq1FIYK8oZRvmr-5">
          <mxGeometry relative="1" as="geometry">
            <Array as="points">
              <mxPoint x="533" y="569" />
            </Array>
          </mxGeometry>
        </mxCell>
        <mxCell id="KNPcgNjq1FIYK8oZRvmr-19" value="addEvent(event)" style="curved=1;rounded=0;" edge="1" parent="1" source="KNPcgNjq1FIYK8oZRvmr-1" target="KNPcgNjq1FIYK8oZRvmr-1">
          <mxGeometry relative="1" as="geometry">
            <Array as="points">
              <mxPoint x="173" y="782" />
              <mxPoint x="173" y="812" />
            </Array>
          </mxGeometry>
        </mxCell>
        <mxCell id="KNPcgNjq1FIYK8oZRvmr-20" value="updateController()" style="verticalAlign=bottom;endArrow=block;edgeStyle=elbowEdgeStyle;elbow=vertical;curved=0;rounded=0;" edge="1" parent="1" source="KNPcgNjq1FIYK8oZRvmr-1" target="KNPcgNjq1FIYK8oZRvmr-4">
          <mxGeometry relative="1" as="geometry">
            <Array as="points">
              <mxPoint x="433" y="864" />
            </Array>
          </mxGeometry>
        </mxCell>
        <mxCell id="KNPcgNjq1FIYK8oZRvmr-21" value="Wait for instructions" style="fillColor=#ffff88;strokeColor=#9E916F;" vertex="1" parent="1">
          <mxGeometry x="42" y="635" width="163" height="49" as="geometry" />
        </mxCell>
      </root>
    </mxGraphModel>
  </diagram>
</mxfile>
